<svg width="70" height="14" viewBox="0 0 70 14" fill="none" xmlns="http://www.w3.org/2000/svg">
<path d="M1.82031 8.54688V13H0.320312V1.625H4.51562C5.76042 1.625 6.73438 1.94271 7.4375 2.57812C8.14583 3.21354 8.5 4.05469 8.5 5.10156C8.5 6.20573 8.15365 7.05729 7.46094 7.65625C6.77344 8.25 5.78646 8.54688 4.5 8.54688H1.82031ZM1.82031 7.32031H4.51562C5.31771 7.32031 5.93229 7.13281 6.35938 6.75781C6.78646 6.3776 7 5.83073 7 5.11719C7 4.4401 6.78646 3.89844 6.35938 3.49219C5.93229 3.08594 5.34635 2.875 4.60156 2.85938H1.82031V7.32031ZM16.8438 7.74219H11.9141V11.7734H17.6406V13H10.4141V1.625H17.5625V2.85938H11.9141V6.51562H16.8438V7.74219ZM27.5234 2.85938H23.8672V13H22.375V2.85938H18.7266V1.625H27.5234V2.85938Z" fill="#EDAA00"/>
<path d="M29.6953 13V5.66406H28.3594V4.54688H29.6953V3.67969C29.6953 2.77344 29.9375 2.07292 30.4219 1.57812C30.9062 1.08333 31.5911 0.835938 32.4766 0.835938C32.8099 0.835938 33.1406 0.880208 33.4688 0.96875L33.3906 2.14062C33.1458 2.09375 32.8854 2.07031 32.6094 2.07031C32.1406 2.07031 31.7786 2.20833 31.5234 2.48438C31.2682 2.75521 31.1406 3.14583 31.1406 3.65625V4.54688H32.9453V5.66406H31.1406V13H29.6953ZM34.1641 8.69531C34.1641 7.86719 34.3255 7.1224 34.6484 6.46094C34.9766 5.79948 35.4297 5.28906 36.0078 4.92969C36.5911 4.57031 37.2552 4.39062 38 4.39062C39.151 4.39062 40.0807 4.78906 40.7891 5.58594C41.5026 6.38281 41.8594 7.44271 41.8594 8.76562V8.86719C41.8594 9.6901 41.7005 10.4297 41.3828 11.0859C41.0703 11.737 40.6198 12.2448 40.0312 12.6094C39.4479 12.974 38.776 13.1562 38.0156 13.1562C36.8698 13.1562 35.9401 12.7578 35.2266 11.9609C34.5182 11.1641 34.1641 10.1094 34.1641 8.79688V8.69531ZM35.6172 8.86719C35.6172 9.80469 35.8333 10.5573 36.2656 11.125C36.7031 11.6927 37.2865 11.9766 38.0156 11.9766C38.75 11.9766 39.3333 11.6901 39.7656 11.1172C40.1979 10.5391 40.4141 9.73177 40.4141 8.69531C40.4141 7.76823 40.1927 7.01823 39.75 6.44531C39.3125 5.86719 38.7292 5.57812 38 5.57812C37.2865 5.57812 36.7109 5.86198 36.2734 6.42969C35.8359 6.9974 35.6172 7.8099 35.6172 8.86719ZM47.7578 5.84375C47.5391 5.80729 47.3021 5.78906 47.0469 5.78906C46.099 5.78906 45.4557 6.19271 45.1172 7V13H43.6719V4.54688H45.0781L45.1016 5.52344C45.5755 4.76823 46.2474 4.39062 47.1172 4.39062C47.3984 4.39062 47.612 4.42708 47.7578 4.5V5.84375ZM54.3125 12.1641C53.75 12.8255 52.9245 13.1562 51.8359 13.1562C50.9349 13.1562 50.2474 12.8958 49.7734 12.375C49.3047 11.849 49.0677 11.0729 49.0625 10.0469V4.54688H50.5078V10.0078C50.5078 11.2891 51.0286 11.9297 52.0703 11.9297C53.1745 11.9297 53.9089 11.5182 54.2734 10.6953V4.54688H55.7188V13H54.3438L54.3125 12.1641ZM59.2812 4.54688L59.3203 5.48438C59.9401 4.75521 60.776 4.39062 61.8281 4.39062C63.0104 4.39062 63.8151 4.84375 64.2422 5.75C64.5234 5.34375 64.888 5.01562 65.3359 4.76562C65.7891 4.51562 66.3229 4.39062 66.9375 4.39062C68.7917 4.39062 69.7344 5.3724 69.7656 7.33594V13H68.3203V7.42188C68.3203 6.81771 68.1823 6.36719 67.9062 6.07031C67.6302 5.76823 67.1667 5.61719 66.5156 5.61719C65.9792 5.61719 65.5339 5.77865 65.1797 6.10156C64.8255 6.41927 64.6198 6.84896 64.5625 7.39062V13H63.1094V7.46094C63.1094 6.23177 62.5078 5.61719 61.3047 5.61719C60.3568 5.61719 59.7083 6.02083 59.3594 6.82812V13H57.9141V4.54688H59.2812Z" fill="black"/>
</svg>
